<!-- <?xml version="1.0"?>
<svg xmlns:rdf="http://www.w3.org/1999/02/22-rdf-syntax-ns#" xmlns="http://www.w3.org/2000/svg" xmlns:cc="http://web.resource.org/cc/" xmlns:xlink="http://www.w3.org/1999/xlink" xmlns:dc="http://purl.org/dc/elements/1.1/" xmlns:svg="http://www.w3.org/2000/svg" id="svg2" viewBox="0 0 1024 768" version="1.0">
  <defs id="defs4">
    <radialGradient id="radialGradient4239" gradientUnits="userSpaceOnUse" cy="-78.333" cx="779.24" gradientTransform="matrix(1.4551 1.4668 1.5542 -1.5417 -496.62 -1294.9)" r="334.46">
      <stop id="stop4230" offset="0"/>
      <stop id="stop4232" stop-opacity="0" offset="1"/>
    </radialGradient>
  </defs>
  <g id="layer1">
    <rect id="rect3255" y="-7.7133e-14" width="1024" height="768" x="0"/>
    <g id="g3239" fill-rule="evenodd" fill="#fff">
      <path id="path2221" d="m375.52 484.66s-80.44 90.5-94.24 91.5c-24.75 1.79-51.89 1.49-47.37 39.84 4.51 38.35 38.34 9.02 38.34 9.02s-2.25-11.28 4.51-13.53c6.77-2.26 18.05 36.09 18.05 36.09l-6.77 4.51s-6.76 31.58 33.84 20.3 45.11-36.09 40.6-47.37l-4.51-11.28s-13.54 24.82-18.05 15.79c-4.51-9.02 7.92-30.73 7.92-30.73s-20.88 1.11-20.88-7.92c0-9.02-1.32-12.73 7.71-21.76 9.02-9.02 21.81-14.02 33.08-25.3 11.28-11.28 15.03-27.07 24.05-27.07 9.03 0-25.05 42.38-44.24 49.72-13.32 5.1-19.87 25.35-0.91 24.72 20.32-0.67 88.01-69.93 88.01-78.95s-7.39-20.54-24.81-27.07c-12.04-4.51-36.58 1.75-34.33-0.51z"/>
      <path id="path2223" d="m275.76 90.851c-12.26 0.25-25.17 6.756-35.68 18.769-21.01 24.01 2.12 63.95 2.12 63.95s-12.1-15.1-25.11-11.1-20.07 30.05-1.06 52.06c19.02 22.02 51.25 9.16 60.26 12.16s96.99 91.97 96.99 91.97l6.87-84.04-62.9-52.06s12.83-39.59-8.98-72.94c-8.51-13.014-20.25-19.019-32.51-18.769zm19.03 47.569c8.08 2.86 13.48 52.06 13.48 52.06l62.9 62.11 1.61 6.8-68.83-62.75s-16.75 14.88-24.75-1.13c-8.01-16.01 16.12-8.99 16.12-8.99s-1.11-10.87-2.12-20.88c-1-10-9-22.95 0-26.95 0.57-0.25 1.05-0.46 1.59-0.27z"/>
      <path id="path2225" d="m664.45 208.61l37.02-41.03s-6-31.02 11.01-62.04c17.01-31.023 70.05-39.029 76.05-2 6.01 37.02-7 53.03-5 63.04s8 15.01 8 15.01-11-25.02 3.01-31.02c14-6.01 36.02 47.03-1.01 63.04-37.02 16.01-48.03-5-48.03-5l-70.05 76.05s-1-20.01-3-33.02-0.61-27.32-0.61-27.32l43.25-42.38s9.4 19.66 19.4 12.66c10.01-7.01-3-14.01-5-32.02-2-18.02-2-39.03-2-39.03s-12.01 21.01-11.01 37.02c1 16.02-1 13.01-1 13.01l-47.03 48.04-4-13.01z"/>
      <path id="path2227" d="m639.41 470.89s-10.91 3.9-16.91 16.91c-6.01 13.01 0 49.16 0 49.16l71.09 62.89s0.71-5.02 1.06-7.92l-50.48-45.2 0.26-3.43 50.74 44.93c1.3-9.88 3.02-21.68 5.29-20.35 2.39 1.4-0.79 27.48-0.79 27.48s25.07-5.48 23.78-1.58c-1.99 6.03-21.4 6.87-21.4 6.87s1.86 25.37-0.53 25.37c-2.75 0-4.5-24.32-4.5-24.32s-16.63 11.21-11.62 41.23c5 30.02 24.96 47.97 59.99 40.96 35.02-7 14.19-27.08 8.19-48.09-6-21.02 2.91-37 2.91-37s0.15 24.22 12.15 27.22c12.01 3 49.84-31.1 19.82-67.13-30.02-36.02-54.1-6.02-62.1-5.02-8.01 1-86.95-82.98-86.95-82.98z"/>
      <path id="path2188" d="m520.16 130.47c-67.49 0.19-89 37.03-89 37.03s-10.53-2.22 28.5 44.81c1.81 2.19 3.54 4.21 5.22 6.16 4.08 0.3 13.89 1.03 19.68 1.03 7.11 0 8.66-1.34 8.66-1.34s-3.34-7.49-3.34-12.44c-0.01-4.96 6.21-12.13 6.21-12.13s-6.9 9.08-5.12 15.69 6.91 11.72-0.53 10.66c-4.16-0.59-17.94 0.04-24.94-0.72 33.74 39.19 38.78 31.25 38.78 31.25l11.97 15.06s-12.71-7.19-25.81-16.65c0.59 1.98 0.91 3.99 0.9 4.93-0.01 5.72-0.38 9.42-1.84 10.72 2.09-8.15 1.56-10.38-1.75-17.65-3.56-2.66-7.1-5.44-10.34-8.29-16.01-14.01-55.22-66.09-55.22-66.09l-15.88 20.09 151.97 168.1c3 3 5.07-9.94 38.1-6.94 33.02 3 41.96 13 41.96 13s12.32-11.02 18.41-20c-3.59-3.35-9.39-8.16-14.44-17.53-7-13.01-5.19-37.94-5.19-37.94l3.63-2.34s-1.78 16.43 0.22 29.44c4.76 16.46 10.93 21 17.12 24.34 8.13-18.51 12.98-50 2.47-93.03-21.01-86.06-67.11-118.19-137.15-119.19-1.1-0.02-2.18-0.03-3.25-0.03z"/>
      <path id="path2190" d="m396.27 220.61c0 2-7.89 7.94-11.89 40.97-8.39 69.26 10.99 113.15 8.99 81.13-2.01-32.02 5.81-59.99 5.81-59.99s-0.2 26.3-1.2 39.31 3.33 19.62 3.33 19.62 15.03-5.02 24.03-5.02c9.01 0 19.03 3.97 19.03 3.97s-36.03 10.06-47.04 15.06-17.18 7.07-17.18 34.09 10.04 35.94 10.04 35.94l-1.84 8.99-10.05-15.86s-2.96-0.1-3.96 16.92c-1 17.01 19.82 37 19.82 37s15.23-12.96 46.25 15.06 4.86 29.41 4.68 39.32c0.6 5.95 25.3 55.73 88.34 58.73 63.05 3 79.02-53.12 79.02-53.12s-8.06-15.93-1.05-49.95c7-34.03 41.15-8.96 49.15-31.98 8.01-23.02 10.95-99.05-1.05-84.04-12.01 15.01-3.06 14.04-15.07 52.06-12.01 38.03-54.04 52.98-89.06 26.96s-20.09-68.19-20.09-68.19l-139.01-156.98zm16.12 144.03s15.97 23.09 45.99 34.1c30.02 11 45.08 5.04 57.08-17.97 0 0-0.07 25.99-6.07 37-6.01 11-30.13 40.96-30.13 40.96s-22.01 2.14-56.03-20.88-10.84-73.21-10.84-73.21zm114.97 85.1c8 0 33 49.14 22.99 58.14-10.01 9.01-24.05-1.99-24.05-14s-1.85-24.05-1.85-24.05-0.02 25.86-5.02 29.86c-5.01 4-21.13-8.89-16.12-25.9 5-17.01 22.04-22.05 24.05-24.05z"/>
      <path id="path3177" d="m450.41 534.38l-4.91 22.51s5.27 7.73 9.47 9.43c4.21 1.71 11.13-23.14 11.13-23.14s-4.98-5.86-8.58-7.32c-3.61-1.46-5.48-1.17-7.11-1.48z"/>
      <path id="path3179" d="m608.1 541.16l4.92 22.51s-5.27 7.73-9.48 9.43c-4.21 1.71-11.12-23.14-11.12-23.14s4.97-5.86 8.58-7.32 5.47-1.17 7.1-1.48z"/>
      <path id="path3181" d="m527.15 581.37l-1.6 25.71-17.98-1.23-0.38-28.15 19.96 3.67z"/>
      <path id="path3183" d="m528.85 581.37l1.6 25.71 17.99-1.23 0.38-28.15-19.97 3.67z"/>
      <path id="path3185" d="m486.15 570l0.72 23.03s6.99 6.21 11.49 6.84 5.15-25.15 5.15-25.15-6.25-4.48-10.11-5.02c-3.85-0.53-5.59 0.2-7.25 0.3z"/>
      <path id="path3187" d="m571.16 570l-0.71 23.03s-6.99 6.21-11.49 6.84-5.15-25.15-5.15-25.15 6.25-4.48 10.11-5.02c3.85-0.53 5.59 0.2 7.24 0.3z"/>
      <path id="path3189" d="m481.23 568.26s-1.08 7.03-1.08 11.89 1.8 11.88 0.72 12.42-11.52-6.48-13.33-14.4c-1.8-7.93-3.42-18.91-0.72-21.25 2.71-2.34 14.59 11.7 14.41 11.34z"/>
      <path id="path3191" d="m576.51 572.58s1.08 7.03 1.08 11.89-1.8 11.89-0.72 12.43 11.52-6.49 13.32-14.41 3.42-18.91 0.72-21.25-14.58 11.7-14.4 11.34z"/>
    </g>
    <path id="path3257" d="m305.28 0c-75.77 57.054-269.91 148.47-269.91 246.15-0.003 171.74 282.75 470.93 467.37 470.93s456.09-313.33 456.09-485.07c0-97.68-157.37-174.96-233.14-232.01h-420.41z" fill="url(#radialGradient4239)"/>
  </g>
  <metadata>
    <rdf:RDF>
      <cc:Work>
        <dc:format>image/svg+xml</dc:format>
        <dc:type rdf:resource="http://purl.org/dc/dcmitype/StillImage"/>
        <cc:license rdf:resource="http://creativecommons.org/licenses/publicdomain/"/>
        <dc:publisher>
          <cc:Agent rdf:about="http://openclipart.org/">
            <dc:title>Openclipart</dc:title>
          </cc:Agent>
        </dc:publisher>
        <dc:title>pirates</dc:title>
        <dc:date>2007-04-14T07:47:44</dc:date>
        <dc:description>A stylized Jolly Roger Flag made popular by the Pirates.</dc:description>
        <dc:source>http://openclipart.org/detail/3938/pirates-by-aitor_avila</dc:source>
        <dc:creator>
          <cc:Agent>
            <dc:title>aitor_avila</dc:title>
          </cc:Agent>
        </dc:creator>
        <dc:subject>
          <rdf:Bag>
            <rdf:li>clip art</rdf:li>
            <rdf:li>clipart</rdf:li>
            <rdf:li>flag</rdf:li>
            <rdf:li>jolly roger</rdf:li>
            <rdf:li>pirate</rdf:li>
            <rdf:li>sign</rdf:li>
          </rdf:Bag>
        </dc:subject>
      </cc:Work>
      <cc:License rdf:about="http://creativecommons.org/licenses/publicdomain/">
        <cc:permits rdf:resource="http://creativecommons.org/ns#Reproduction"/>
        <cc:permits rdf:resource="http://creativecommons.org/ns#Distribution"/>
        <cc:permits rdf:resource="http://creativecommons.org/ns#DerivativeWorks"/>
      </cc:License>
    </rdf:RDF>
  </metadata>
</svg> -->


<svg width="100" height="100" xmlns="http://www.w3.org/2000/svg">
  <rect width="100%" height="100%" fill="transparent" />
</svg>